<svg width="346.0400146484375px" height="124.64000549316405px" xmlns="http://www.w3.org/2000/svg" viewBox="76.97999267578126 12.679997253417973 346.0400146484375 124.64000549316405" style="background: rgb(253, 253, 253);" preserveAspectRatio="xMidYMid"><defs><filter id="editing-extrude-glow"><feFlood flood-color="#bbcedd" result="flood-1"></feFlood><feMorphology operator="erode" radius="1" in="SourceAlpha" result="erode"></feMorphology><feComposite operator="in" in="flood-1" in2="erode" result="comp1"></feComposite><feConvolveMatrix order="0,0" divisor="1" in="comp1" result="convolve" kernelMatrix=""></feConvolveMatrix><feOffset dx="0" dy="0" in="convolve" result="extrude"></feOffset><feComposite operator="in" in="flood-1" in2="extrude" result="comp-extrude"></feComposite><feFlood flood-color="#dce4eb" result="flood-2"></feFlood><feComposite operator="in" in="flood-2" in2="SourceAlpha" result="comp2"></feComposite><feMorphology operator="dilate" radius="1" in="comp2" result="dilate"></feMorphology><feOffset dx="0" dy="0" in="dilate" result="offset"></feOffset><feGaussianBlur in="offset" stdDeviation="5.8" result="blur"></feGaussianBlur><feComponentTransfer in="blur" result="shadow"><feFuncA type="linear" slope="0.8" intercept="-0.2"></feFuncA></feComponentTransfer><feMerge><feMergeNode in="shadow"></feMergeNode><feMergeNode in="comp-extrude"></feMergeNode><feMergeNode in="SourceGraphic"></feMergeNode></feMerge></filter></defs><g filter="url(#editing-extrude-glow)"><g transform="translate(129.0400195121765, 103.67499923706055)"><path d="M4.48 0L4.48-43.33L4.48-43.33Q4.93-43.33 6.40-43.36L6.40-43.36L6.40-43.36Q7.87-43.39 9.73-43.39L9.73-43.39L9.73-43.39Q11.58-43.39 13.57-43.42L13.57-43.42L13.57-43.42Q15.55-43.46 17.02-43.46L17.02-43.46L17.02-43.46Q27.90-43.46 33.15-38.05L33.15-38.05L33.15-38.05Q38.40-32.64 38.40-21.95L38.40-21.95L38.40-21.95Q38.40-11.26 33.02-5.57L33.02-5.57L33.02-5.57Q27.65 0.13 16.19 0.13L16.19 0.13L16.19 0.13Q14.21 0.13 12.32 0.10L12.32 0.10L12.32 0.10Q10.43 0.06 8.86 0.06L8.86 0.06L8.86 0.06Q7.30 0.06 6.14 0.03L6.14 0.03L6.14 0.03Q4.99 0 4.48 0L4.48 0ZM16.13-37.76L16.13-37.76Q14.66-37.76 13.66-37.73L13.66-37.73L13.66-37.73Q12.67-37.70 12.10-37.70L12.10-37.70L12.10-5.63L12.10-5.63Q12.80-5.57 13.92-5.57L13.92-5.57L13.92-5.57Q15.04-5.57 17.15-5.57L17.15-5.57L17.15-5.57Q23.87-5.57 27.01-9.50L27.01-9.50L27.01-9.50Q30.14-13.44 30.14-21.25L30.14-21.25L30.14-21.25Q30.14-24.96 29.41-28L29.41-28L29.41-28Q28.67-31.04 26.98-33.22L26.98-33.22L26.98-33.22Q25.28-35.39 22.62-36.58L22.62-36.58L22.62-36.58Q19.97-37.76 16.13-37.76L16.13-37.76ZM71.04-30.53L71.04-15.42L71.04-15.42Q71.04-11.58 71.52-8.99L71.52-8.99L71.52-8.99Q72-6.40 72.58-4.80L72.58-4.80L72.58-4.80Q73.28-2.88 74.11-1.79L74.11-1.79L68.42 0.51L68.42 0.51Q67.58-0.32 66.88-1.47L66.88-1.47L66.88-1.47Q66.30-2.50 65.79-3.94L65.79-3.94L65.79-3.94Q65.28-5.38 65.15-7.36L65.15-7.36L65.15-7.36Q64.06-3.52 61.66-1.57L61.66-1.57L61.66-1.57Q59.26 0.38 55.17 0.38L55.17 0.38L55.17 0.38Q52.16 0.38 49.95-0.74L49.95-0.74L49.95-0.74Q47.74-1.86 46.27-3.94L46.27-3.94L46.27-3.94Q44.80-6.02 44.10-8.96L44.10-8.96L44.10-8.96Q43.39-11.90 43.39-15.49L43.39-15.49L43.39-15.49Q43.39-19.14 44.51-22.24L44.51-22.24L44.51-22.24Q45.63-25.34 47.65-27.58L47.65-27.58L47.65-27.58Q49.66-29.82 52.48-31.10L52.48-31.10L52.48-31.10Q55.30-32.38 58.69-32.38L58.69-32.38L58.69-32.38Q60.61-32.38 62.69-32.10L62.69-32.10L62.69-32.10Q64.77-31.81 66.56-31.49L66.56-31.49L66.56-31.49Q68.35-31.17 69.60-30.88L69.60-30.88L69.60-30.88Q70.85-30.59 71.04-30.53L71.04-30.53ZM56.38-4.74L56.38-4.74Q57.98-4.74 59.33-5.82L59.33-5.82L59.33-5.82Q60.67-6.91 61.66-8.67L61.66-8.67L61.66-8.67Q62.66-10.43 63.20-12.70L63.20-12.70L63.20-12.70Q63.74-14.98 63.74-17.34L63.74-17.34L63.74-26.56L63.74-26.56Q63.10-26.75 61.82-27.01L61.82-27.01L61.82-27.01Q60.54-27.26 59.52-27.26L59.52-27.26L59.52-27.26Q57.09-27.26 55.52-26.43L55.52-26.43L55.52-26.43Q53.95-25.60 52.99-24.13L52.99-24.13L52.99-24.13Q52.03-22.66 51.65-20.61L51.65-20.61L51.65-20.61Q51.26-18.56 51.26-16.13L51.26-16.13L51.26-16.13Q51.26-13.89 51.39-11.84L51.39-11.84L51.39-11.84Q51.52-9.79 52.06-8.19L52.06-8.19L52.06-8.19Q52.61-6.59 53.63-5.66L53.63-5.66L53.63-5.66Q54.66-4.74 56.38-4.74L56.38-4.74ZM76.10-26.69L76.10-31.87L81.86-31.87L83.14-39.36L89.15-40.70L89.15-31.87L97.02-31.87L96.13-26.69L89.15-26.69L89.15-7.74L89.15-7.74Q89.15-6.08 90.05-5.60L90.05-5.60L90.05-5.60Q90.94-5.12 92.03-5.12L92.03-5.12L92.03-5.12Q92.93-5.12 93.82-5.25L93.82-5.25L93.82-5.25Q94.72-5.38 95.42-5.57L95.42-5.57L95.42-5.57Q96.26-5.76 97.02-6.02L97.02-6.02L98.24-1.22L97.66-1.02L97.66-1.02Q97.09-0.77 95.97-0.48L95.97-0.48L95.97-0.48Q94.85-0.19 93.34 0.03L93.34 0.03L93.34 0.03Q91.84 0.26 90.05 0.26L90.05 0.26L90.05 0.26Q88.26 0.26 86.75-0.13L86.75-0.13L86.75-0.13Q85.25-0.51 84.16-1.38L84.16-1.38L84.16-1.38Q83.07-2.24 82.46-3.58L82.46-3.58L82.46-3.58Q81.86-4.93 81.86-6.91L81.86-6.91L81.86-26.69L76.10-26.69ZM123.14-28.29L119.04-24.38L119.04-24.38Q118.08-25.47 117.09-26.24L117.09-26.24L117.09-26.24Q116.10-27.01 114.43-27.01L114.43-27.01L114.43-27.01Q113.47-27.01 112.29-26.72L112.29-26.72L112.29-26.72Q111.10-26.43 110.08-25.31L110.08-25.31L110.08-25.31Q109.06-24.19 108.38-22.02L108.38-22.02L108.38-22.02Q107.71-19.84 107.71-16.13L107.71-16.13L107.71-16.13Q107.71-12.35 108.38-10.14L108.38-10.14L108.38-10.14Q109.06-7.94 110.11-6.72L110.11-6.72L110.11-6.72Q111.17-5.50 112.38-5.15L112.38-5.15L112.38-5.15Q113.60-4.80 114.75-4.80L114.75-4.80L114.75-4.80Q115.65-4.80 116.61-4.96L116.61-4.96L116.61-4.96Q117.57-5.12 118.46-5.34L118.46-5.34L118.46-5.34Q119.36-5.57 120.03-5.76L120.03-5.76L120.03-5.76Q120.70-5.95 121.02-6.08L121.02-6.08L122.82-1.47L122.82-1.47Q122.62-1.41 121.95-1.09L121.95-1.09L121.95-1.09Q121.28-0.77 120.13-0.45L120.13-0.45L120.13-0.45Q118.98-0.13 117.38 0.16L117.38 0.16L117.38 0.16Q115.78 0.45 113.79 0.45L113.79 0.45L113.79 0.45Q110.08 0.45 107.46-0.67L107.46-0.67L107.46-0.67Q104.83-1.79 103.14-3.84L103.14-3.84L103.14-3.84Q101.44-5.89 100.64-8.77L100.64-8.77L100.64-8.77Q99.84-11.65 99.84-15.17L99.84-15.17L99.84-15.17Q99.84-19.39 100.96-22.66L100.96-22.66L100.96-22.66Q102.08-25.92 104.06-28.13L104.06-28.13L104.06-28.13Q106.05-30.34 108.74-31.49L108.74-31.49L108.74-31.49Q111.42-32.64 114.50-32.64L114.50-32.64L114.50-32.64Q117.50-32.64 119.58-31.49L119.58-31.49L119.58-31.49Q121.66-30.34 123.14-28.29L123.14-28.29ZM142.27-25.22L142.27-25.22Q141.12-25.22 139.97-24.64L139.97-24.64L139.97-24.64Q138.82-24.06 137.92-23.07L137.92-23.07L137.92-23.07Q137.02-22.08 136.45-20.67L136.45-20.67L136.45-20.67Q135.87-19.26 135.87-17.54L135.87-17.54L135.87 0L128.58 0L128.58-16.13L128.58-16.13Q128.58-19.97 128.06-22.56L128.06-22.56L128.06-22.56Q127.55-25.15 126.98-26.75L126.98-26.75L126.98-26.75Q126.27-28.61 125.44-29.76L125.44-29.76L131.20-32.06L131.20-32.06Q131.78-31.36 132.42-30.34L132.42-30.34L132.42-30.34Q132.93-29.44 133.44-28.22L133.44-28.22L133.44-28.22Q133.95-27.01 134.27-25.34L134.27-25.34L134.27-25.34Q135.55-29.06 137.98-30.69L137.98-30.69L137.98-30.69Q140.42-32.32 143.49-32.32L143.49-32.32L143.49-32.32Q144.96-32.32 146.24-31.97L146.24-31.97L146.24-31.97Q147.52-31.62 147.46-31.62L147.46-31.62L145.41-24.51L145.41-24.51Q145.47-24.51 144.67-24.86L144.67-24.86L144.67-24.86Q143.87-25.22 142.27-25.22L142.27-25.22ZM175.42-30.53L175.42-15.42L175.42-15.42Q175.42-11.58 175.90-8.99L175.90-8.99L175.90-8.99Q176.38-6.40 176.96-4.80L176.96-4.80L176.96-4.80Q177.66-2.88 178.50-1.79L178.50-1.79L172.80 0.51L172.80 0.51Q171.97-0.32 171.26-1.47L171.26-1.47L171.26-1.47Q170.69-2.50 170.18-3.94L170.18-3.94L170.18-3.94Q169.66-5.38 169.54-7.36L169.54-7.36L169.54-7.36Q168.45-3.52 166.05-1.57L166.05-1.57L166.05-1.57Q163.65 0.38 159.55 0.38L159.55 0.38L159.55 0.38Q156.54 0.38 154.34-0.74L154.34-0.74L154.34-0.74Q152.13-1.86 150.66-3.94L150.66-3.94L150.66-3.94Q149.18-6.02 148.48-8.96L148.48-8.96L148.48-8.96Q147.78-11.90 147.78-15.49L147.78-15.49L147.78-15.49Q147.78-19.14 148.90-22.24L148.90-22.24L148.90-22.24Q150.02-25.34 152.03-27.58L152.03-27.58L152.03-27.58Q154.05-29.82 156.86-31.10L156.86-31.10L156.86-31.10Q159.68-32.38 163.07-32.38L163.07-32.38L163.07-32.38Q164.99-32.38 167.07-32.10L167.07-32.10L167.07-32.10Q169.15-31.81 170.94-31.49L170.94-31.49L170.94-31.49Q172.74-31.17 173.98-30.88L173.98-30.88L173.98-30.88Q175.23-30.59 175.42-30.53L175.42-30.53ZM160.77-4.74L160.77-4.74Q162.37-4.74 163.71-5.82L163.71-5.82L163.71-5.82Q165.06-6.91 166.05-8.67L166.05-8.67L166.05-8.67Q167.04-10.43 167.58-12.70L167.58-12.70L167.58-12.70Q168.13-14.98 168.13-17.34L168.13-17.34L168.13-26.56L168.13-26.56Q167.49-26.75 166.21-27.01L166.21-27.01L166.21-27.01Q164.93-27.26 163.90-27.26L163.90-27.26L163.90-27.26Q161.47-27.26 159.90-26.43L159.90-26.43L159.90-26.43Q158.34-25.60 157.38-24.13L157.38-24.13L157.38-24.13Q156.42-22.66 156.03-20.61L156.03-20.61L156.03-20.61Q155.65-18.56 155.65-16.13L155.65-16.13L155.65-16.13Q155.65-13.89 155.78-11.84L155.78-11.84L155.78-11.84Q155.90-9.79 156.45-8.19L156.45-8.19L156.45-8.19Q156.99-6.59 158.02-5.66L158.02-5.66L158.02-5.66Q159.04-4.74 160.77-4.74L160.77-4.74ZM204.99 0L181.76 0L181.76-4.35L195.90-26.75L195.90-26.75Q192.64-26.56 189.44-26.56L189.44-26.56L183.17-26.56L182.27-31.87L204.42-31.87L204.42-27.52L190.46-5.12L190.46-5.12Q193.34-5.31 196.22-5.31L196.22-5.31L204.99-5.31L204.99 0ZM235.84-31.87L235.52-12.93L235.52-12.93Q235.52-11.01 235.81-9.41L235.81-9.41L235.81-9.41Q236.10-7.81 236.45-6.24L236.45-6.24L236.45-6.24Q236.80-4.67 237.12-3.07L237.12-3.07L237.12-3.07Q237.44-1.47 237.44 0.45L237.44 0.45L237.44 0.45Q237.44 7.23 233.98 10.56L233.98 10.56L233.98 10.56Q230.53 13.89 224.64 13.89L224.64 13.89L224.64 13.89Q222.72 13.89 220.80 13.54L220.80 13.54L220.80 13.54Q218.88 13.18 217.25 12.74L217.25 12.74L217.25 12.74Q215.62 12.29 214.46 11.84L214.46 11.84L214.46 11.84Q213.31 11.39 212.93 11.20L212.93 11.20L214.72 5.63L214.72 5.63Q215.62 6.02 216.74 6.43L216.74 6.43L216.74 6.43Q217.86 6.85 219.04 7.23L219.04 7.23L219.04 7.23Q220.22 7.62 221.50 7.87L221.50 7.87L221.50 7.87Q222.78 8.13 224.00 8.13L224.00 8.13L224.00 8.13Q227.58 8.13 229.18 5.98L229.18 5.98L229.18 5.98Q230.78 3.84 230.78 0.45L230.78 0.45L230.78 0.45Q230.78-2.62 229.50-5.89L229.50-5.89L229.50-5.89Q227.71-2.50 224.74-1.06L224.74-1.06L224.74-1.06Q221.76 0.38 218.50 0.38L218.50 0.38L218.50 0.38Q213.44 0.38 211.30-2.56L211.30-2.56L211.30-2.56Q209.15-5.50 209.15-10.62L209.15-10.62L209.15-31.87L216.45-31.87L216.45-10.82L216.45-10.82Q216.45-8.13 217.41-6.59L217.41-6.59L217.41-6.59Q218.37-5.06 220.67-5.06L220.67-5.06L220.67-5.06Q221.89-5.06 223.26-5.76L223.26-5.76L223.26-5.76Q224.64-6.46 225.76-7.71L225.76-7.71L225.76-7.71Q226.88-8.96 227.62-10.72L227.62-10.72L227.62-10.72Q228.35-12.48 228.35-14.53L228.35-14.53L228.35-31.87L235.84-31.87Z" fill="#000000"></path></g></g><style>text {
  font-size: 64px;
  font-family: Arial Black;
  dominant-baseline: central;
  text-anchor: middle;
}</style></svg>